<svg xmlns="http://www.w3.org/2000/svg" height="40" viewBox="0 -960 960 960" width="40"><path d="m364-80-49.333-174.666q-52.667-36-83.667-95Q200-408.667 200-480t31-130.667q31-59.333 83.667-94.667L364-880h232l49.333 174.666Q698-670 729-610.667 760-551.333 760-480t-31 130.334q-31 59-83.667 95L596-80H364Zm116-186.666q89 0 151.167-62.167T693.334-480q0-89-62.167-151.167T480-693.334q-89 0-151.167 62.167T266.666-480q0 89 62.167 151.167T480-266.666ZM396.666-746q22.001-6.333 42.501-9.667Q459.667-759 480-759t40.833 3.333q20.5 3.334 42.501 9.667L546-813.334H414L396.666-746ZM414-146.666h132L563.334-214q-22.001 5.667-42.501 8.833Q500.333-202 480-202t-40.833-3.167q-20.5-3.166-42.501-8.833L414-146.666Zm-17.334-666.668h166.668-166.668ZM414-146.666h-17.334 166.668H414Z"/></svg>